<!DOCTYPE svg PUBLIC "-//W3C//DTD SVG 20010904//EN" "http://www.w3.org/TR/2001/REC-SVG-20010904/DTD/svg10.dtd">
<svg version="1.0"
    xmlns="http://www.w3.org/2000/svg" width="656px" height="499px" viewBox="0 0 6560 4990" preserveAspectRatio="xMidYMid meet">
    <g id="layer101" fill="#00d087" stroke="none">
        <path d="M2346 4484 l-829 -503 -626 -3 -626 -3 -56 -26 c-79 -37 -133 -90 -171 -167 l-33 -67 0 -1385 0 -1385 29 -62 c33 -73 103 -144 174 -176 43 -20 66 -22 269 -25 l222 -3 3 -217 c3 -207 4 -219 27 -267 33 -66 100 -131 169 -163 l57 -27 2090 0 2090 0 67 33 c77 38 130 92 167 171 l26 56 3 1359 c3 1475 4 1425 -51 1513 -33 52 -100 111 -156 137 -42 19 -66 21 -268 24 l-223 3 0 204 c0 181 -2 210 -20 259 -28 73 -99 147 -175 183 l-60 28 -627 3 -628 3 0 504 c0 278 -3 505 -7 504 -5 0 -381 -228 -837 -505z"/>
        <path d="M6249 3127 c-340 -240 -379 -269 -423 -318 -25 -28 -55 -76 -68 -107 l-23 -57 -3 -959 c-2 -593 1 -978 7 -1011 13 -69 43 -132 88 -185 20 -23 162 -132 316 -241 245 -174 285 -199 318 -199 26 0 47 8 68 26 l31 26 0 1548 0 1547 -26 27 c-21 20 -37 26 -69 26 -39 0 -60 -12 -216 -123z"/>
    </g>
    <g id="layer102" fill="#ff005f" stroke="none">
        <path d="M2346 4484 l-829 -503 -626 -3 -626 -3 -56 -26 c-79 -37 -133 -90 -171 -167 l-33 -67 0 -1385 0 -1385 29 -62 c33 -73 103 -144 174 -176 l47 -22 2090 0 2090 0 62 29 c73 33 144 103 176 174 l22 47 3 1387 c2 1379 2 1387 -18 1442 -28 73 -98 147 -175 183 l-60 28 -627 3 -628 3 0 504 c0 278 -3 505 -7 504 -5 0 -381 -228 -837 -505z"/>
    </g>
    <g id="layer103" fill="#fffefe" stroke="none">
        <path d="M2195 3180 c-310 -48 -529 -242 -628 -555 -108 -342 -27 -708 207 -940 93 -92 193 -150 322 -187 118 -33 289 -31 399 5 44 15 103 40 131 56 61 35 153 118 206 184 l38 49 0 -136 0 -136 160 0 160 0 0 805 0 805 -160 0 -159 0 -3 -125 -3 -125 -42 55 c-78 101 -239 204 -366 234 -69 17 -192 21 -262 11z m337 -301 c218 -73 350 -278 351 -544 1 -190 -49 -323 -162 -436 -82 -82 -167 -125 -280 -141 -283 -42 -525 136 -587 432 -19 90 -14 246 12 330 57 194 200 335 377 376 80 18 208 11 289 -17z"/>
    </g>

</svg>